<?xml version="1.0" standalone="no"?>
<!DOCTYPE svg PUBLIC "-//W3C//DTD SVG 20010904//EN"
 "http://www.w3.org/TR/2001/REC-SVG-20010904/DTD/svg10.dtd">
<svg version="1.0" xmlns="http://www.w3.org/2000/svg"
 width="260.000000pt" height="260.000000pt" viewBox="0 0 260.000000 260.000000"
 preserveAspectRatio="xMidYMid meet">
<metadata>
Created by potrace 1.14, written by Peter Selinger 2001-2017
</metadata>
<g transform="translate(0.000000,260.000000) scale(0.100000,-0.100000)"
fill="#000000" stroke="none">
<path d="M1047 2570 c-250 -53 -454 -157 -634 -325 -309 -287 -462 -726 -397
-1139 65 -412 317 -764 683 -954 198 -103 366 -144 591 -145 157 -1 260 14
403 59 396 126 715 444 840 841 43 134 57 233 57 393 0 223 -41 400 -135 584
-184 361 -523 614 -924 690 -118 23 -368 21 -484 -4z"/>
</g>
</svg>
